<mxfile host="app.diagrams.net" agent="Mozilla/5.0 (Macintosh; Intel Mac OS X 10_15_7) AppleWebKit/537.36 (KHTML, like Gecko) Chrome/129.0.0.0 Safari/537.36" version="24.8.2">
  <diagram id="prtHgNgQTEPvFCAcTncT" name="Page-1">
    <mxGraphModel dx="1314" dy="865" grid="1" gridSize="10" guides="1" tooltips="1" connect="1" arrows="1" fold="1" page="1" pageScale="1" pageWidth="827" pageHeight="1169" math="0" shadow="0">
      <root>
        <mxCell id="0" />
        <mxCell id="1" parent="0" />
        <mxCell id="dNxyNK7c78bLwvsdeMH5-19" value="安检称重业务流程" style="swimlane;html=1;childLayout=stackLayout;resizeParent=1;resizeParentMax=0;horizontal=0;startSize=40;horizontalStack=0;" parent="1" vertex="1">
          <mxGeometry x="30" y="50" width="810" height="580" as="geometry" />
        </mxCell>
        <mxCell id="dNxyNK7c78bLwvsdeMH5-20" value="供应链系统" style="swimlane;html=1;startSize=40;horizontal=0;" parent="dNxyNK7c78bLwvsdeMH5-19" vertex="1">
          <mxGeometry x="40" width="770" height="100" as="geometry">
            <mxRectangle x="40" width="770" height="40" as="alternateBounds" />
          </mxGeometry>
        </mxCell>
        <mxCell id="dNxyNK7c78bLwvsdeMH5-24" value="推送业务&lt;div&gt;销售/采购订单&lt;/div&gt;" style="rounded=0;whiteSpace=wrap;html=1;fontFamily=Helvetica;fontSize=12;fontColor=#000000;align=center;" parent="dNxyNK7c78bLwvsdeMH5-20" vertex="1">
          <mxGeometry x="50" y="25" width="80" height="50" as="geometry" />
        </mxCell>
        <mxCell id="5SrO1-f8xOF5O9hoDV5b-19" value="标记订单&lt;div&gt;车辆入场&lt;/div&gt;" style="whiteSpace=wrap;html=1;fontColor=#000000;rounded=0;" vertex="1" parent="dNxyNK7c78bLwvsdeMH5-20">
          <mxGeometry x="500" y="25" width="80" height="50" as="geometry" />
        </mxCell>
        <mxCell id="5SrO1-f8xOF5O9hoDV5b-38" value="记录订单装车数据" style="whiteSpace=wrap;html=1;fontColor=#000000;rounded=0;" vertex="1" parent="dNxyNK7c78bLwvsdeMH5-20">
          <mxGeometry x="660" y="25" width="80" height="50" as="geometry" />
        </mxCell>
        <mxCell id="dNxyNK7c78bLwvsdeMH5-21" value="司机" style="swimlane;html=1;startSize=40;horizontal=0;" parent="dNxyNK7c78bLwvsdeMH5-19" vertex="1">
          <mxGeometry x="40" y="100" width="770" height="100" as="geometry" />
        </mxCell>
        <mxCell id="dNxyNK7c78bLwvsdeMH5-26" value="提供车辆、&lt;span style=&quot;background-color: initial;&quot;&gt;驾驶人员、押车人员安检信息&lt;/span&gt;" style="rounded=0;whiteSpace=wrap;html=1;fontFamily=Helvetica;fontSize=12;fontColor=#000000;align=center;" parent="dNxyNK7c78bLwvsdeMH5-21" vertex="1">
          <mxGeometry x="160" y="35" width="80" height="50" as="geometry" />
        </mxCell>
        <mxCell id="dNxyNK7c78bLwvsdeMH5-22" value="安检" style="swimlane;html=1;startSize=40;horizontal=0;" parent="dNxyNK7c78bLwvsdeMH5-19" vertex="1">
          <mxGeometry x="40" y="200" width="770" height="100" as="geometry" />
        </mxCell>
        <mxCell id="5SrO1-f8xOF5O9hoDV5b-26" value="" style="edgeStyle=orthogonalEdgeStyle;rounded=0;orthogonalLoop=1;jettySize=auto;html=1;" edge="1" parent="dNxyNK7c78bLwvsdeMH5-22" source="5SrO1-f8xOF5O9hoDV5b-5" target="5SrO1-f8xOF5O9hoDV5b-24">
          <mxGeometry relative="1" as="geometry" />
        </mxCell>
        <mxCell id="5SrO1-f8xOF5O9hoDV5b-5" value="接收订单信息" style="rounded=0;whiteSpace=wrap;html=1;fontFamily=Helvetica;fontSize=12;fontColor=#000000;align=center;" vertex="1" parent="dNxyNK7c78bLwvsdeMH5-22">
          <mxGeometry x="50" y="25" width="80" height="50" as="geometry" />
        </mxCell>
        <mxCell id="dNxyNK7c78bLwvsdeMH5-34" value="入场前安检" style="rounded=0;whiteSpace=wrap;html=1;fontFamily=Helvetica;fontSize=12;fontColor=#000000;align=center;" parent="dNxyNK7c78bLwvsdeMH5-22" vertex="1">
          <mxGeometry x="274" y="25" width="80" height="50" as="geometry" />
        </mxCell>
        <mxCell id="5SrO1-f8xOF5O9hoDV5b-27" value="" style="edgeStyle=orthogonalEdgeStyle;rounded=0;orthogonalLoop=1;jettySize=auto;html=1;" edge="1" parent="dNxyNK7c78bLwvsdeMH5-22" source="5SrO1-f8xOF5O9hoDV5b-24" target="dNxyNK7c78bLwvsdeMH5-34">
          <mxGeometry relative="1" as="geometry" />
        </mxCell>
        <mxCell id="5SrO1-f8xOF5O9hoDV5b-24" value="匹配车辆信息以及订单信息" style="rounded=0;whiteSpace=wrap;html=1;fontFamily=Helvetica;fontSize=12;fontColor=#000000;align=center;" vertex="1" parent="dNxyNK7c78bLwvsdeMH5-22">
          <mxGeometry x="160" y="25" width="80" height="50" as="geometry" />
        </mxCell>
        <mxCell id="5SrO1-f8xOF5O9hoDV5b-29" value="充装中、后安检" style="rounded=0;whiteSpace=wrap;html=1;fontFamily=Helvetica;fontSize=12;fontColor=#000000;align=center;" vertex="1" parent="dNxyNK7c78bLwvsdeMH5-22">
          <mxGeometry x="580" y="25" width="80" height="50" as="geometry" />
        </mxCell>
        <mxCell id="5SrO1-f8xOF5O9hoDV5b-2" value="称重" style="swimlane;horizontal=0;whiteSpace=wrap;html=1;startSize=40;" vertex="1" parent="dNxyNK7c78bLwvsdeMH5-19">
          <mxGeometry x="40" y="300" width="770" height="180" as="geometry" />
        </mxCell>
        <mxCell id="5SrO1-f8xOF5O9hoDV5b-7" value="接收订单、车辆信息" style="rounded=0;whiteSpace=wrap;html=1;fontFamily=Helvetica;fontSize=12;fontColor=#000000;align=center;" vertex="1" parent="5SrO1-f8xOF5O9hoDV5b-2">
          <mxGeometry x="274" y="22.5" width="80" height="50" as="geometry" />
        </mxCell>
        <mxCell id="5SrO1-f8xOF5O9hoDV5b-45" value="" style="edgeStyle=orthogonalEdgeStyle;rounded=0;orthogonalLoop=1;jettySize=auto;html=1;" edge="1" parent="5SrO1-f8xOF5O9hoDV5b-2" source="5SrO1-f8xOF5O9hoDV5b-11" target="5SrO1-f8xOF5O9hoDV5b-44">
          <mxGeometry relative="1" as="geometry" />
        </mxCell>
        <mxCell id="5SrO1-f8xOF5O9hoDV5b-11" value="入场称重" style="whiteSpace=wrap;html=1;fontColor=#000000;rounded=0;" vertex="1" parent="5SrO1-f8xOF5O9hoDV5b-2">
          <mxGeometry x="390" y="22.5" width="80" height="50" as="geometry" />
        </mxCell>
        <mxCell id="5SrO1-f8xOF5O9hoDV5b-15" value="" style="edgeStyle=orthogonalEdgeStyle;rounded=0;orthogonalLoop=1;jettySize=auto;html=1;" edge="1" parent="5SrO1-f8xOF5O9hoDV5b-2" source="5SrO1-f8xOF5O9hoDV5b-7" target="5SrO1-f8xOF5O9hoDV5b-11">
          <mxGeometry relative="1" as="geometry" />
        </mxCell>
        <mxCell id="5SrO1-f8xOF5O9hoDV5b-12" value="" style="edgeStyle=orthogonalEdgeStyle;rounded=0;orthogonalLoop=1;jettySize=auto;html=1;" edge="1" parent="5SrO1-f8xOF5O9hoDV5b-2" source="5SrO1-f8xOF5O9hoDV5b-7" target="5SrO1-f8xOF5O9hoDV5b-11">
          <mxGeometry relative="1" as="geometry" />
        </mxCell>
        <mxCell id="5SrO1-f8xOF5O9hoDV5b-16" value="制装车IC卡" style="whiteSpace=wrap;html=1;fontColor=#000000;rounded=0;" vertex="1" parent="5SrO1-f8xOF5O9hoDV5b-2">
          <mxGeometry x="390" y="107.5" width="80" height="50" as="geometry" />
        </mxCell>
        <mxCell id="5SrO1-f8xOF5O9hoDV5b-17" value="" style="edgeStyle=orthogonalEdgeStyle;rounded=0;orthogonalLoop=1;jettySize=auto;html=1;" edge="1" parent="5SrO1-f8xOF5O9hoDV5b-2" source="5SrO1-f8xOF5O9hoDV5b-11" target="5SrO1-f8xOF5O9hoDV5b-16">
          <mxGeometry relative="1" as="geometry" />
        </mxCell>
        <mxCell id="5SrO1-f8xOF5O9hoDV5b-40" value="" style="edgeStyle=orthogonalEdgeStyle;rounded=0;orthogonalLoop=1;jettySize=auto;html=1;" edge="1" parent="5SrO1-f8xOF5O9hoDV5b-2" source="5SrO1-f8xOF5O9hoDV5b-31" target="5SrO1-f8xOF5O9hoDV5b-39">
          <mxGeometry relative="1" as="geometry" />
        </mxCell>
        <mxCell id="5SrO1-f8xOF5O9hoDV5b-44" value="推送车辆入场信息" style="whiteSpace=wrap;html=1;fontColor=#000000;rounded=0;" vertex="1" parent="5SrO1-f8xOF5O9hoDV5b-2">
          <mxGeometry x="500" y="22.5" width="80" height="50" as="geometry" />
        </mxCell>
        <mxCell id="5SrO1-f8xOF5O9hoDV5b-39" value="推送装车信息" style="whiteSpace=wrap;html=1;fontColor=#000000;rounded=0;" vertex="1" parent="5SrO1-f8xOF5O9hoDV5b-2">
          <mxGeometry x="660" y="22.5" width="80" height="50" as="geometry" />
        </mxCell>
        <mxCell id="5SrO1-f8xOF5O9hoDV5b-31" value="出厂称重" style="whiteSpace=wrap;html=1;fontColor=#000000;rounded=0;" vertex="1" parent="5SrO1-f8xOF5O9hoDV5b-2">
          <mxGeometry x="660" y="107.5" width="80" height="50" as="geometry" />
        </mxCell>
        <mxCell id="5SrO1-f8xOF5O9hoDV5b-6" style="edgeStyle=orthogonalEdgeStyle;rounded=0;orthogonalLoop=1;jettySize=auto;html=1;" edge="1" parent="dNxyNK7c78bLwvsdeMH5-19" source="dNxyNK7c78bLwvsdeMH5-24" target="5SrO1-f8xOF5O9hoDV5b-5">
          <mxGeometry relative="1" as="geometry" />
        </mxCell>
        <mxCell id="5SrO1-f8xOF5O9hoDV5b-20" value="" style="edgeStyle=orthogonalEdgeStyle;rounded=0;orthogonalLoop=1;jettySize=auto;html=1;" edge="1" parent="dNxyNK7c78bLwvsdeMH5-19" source="5SrO1-f8xOF5O9hoDV5b-44" target="5SrO1-f8xOF5O9hoDV5b-19">
          <mxGeometry relative="1" as="geometry" />
        </mxCell>
        <mxCell id="5SrO1-f8xOF5O9hoDV5b-9" style="edgeStyle=orthogonalEdgeStyle;rounded=0;orthogonalLoop=1;jettySize=auto;html=1;" edge="1" parent="dNxyNK7c78bLwvsdeMH5-19" source="dNxyNK7c78bLwvsdeMH5-34" target="5SrO1-f8xOF5O9hoDV5b-7">
          <mxGeometry relative="1" as="geometry" />
        </mxCell>
        <mxCell id="5SrO1-f8xOF5O9hoDV5b-25" style="edgeStyle=orthogonalEdgeStyle;rounded=0;orthogonalLoop=1;jettySize=auto;html=1;" edge="1" parent="dNxyNK7c78bLwvsdeMH5-19" source="dNxyNK7c78bLwvsdeMH5-26" target="5SrO1-f8xOF5O9hoDV5b-24">
          <mxGeometry relative="1" as="geometry" />
        </mxCell>
        <mxCell id="5SrO1-f8xOF5O9hoDV5b-18" style="edgeStyle=orthogonalEdgeStyle;rounded=0;orthogonalLoop=1;jettySize=auto;html=1;" edge="1" parent="dNxyNK7c78bLwvsdeMH5-19" source="5SrO1-f8xOF5O9hoDV5b-16" target="5SrO1-f8xOF5O9hoDV5b-13">
          <mxGeometry relative="1" as="geometry" />
        </mxCell>
        <mxCell id="5SrO1-f8xOF5O9hoDV5b-3" value="鹤壁（装车）/卸车" style="swimlane;horizontal=0;whiteSpace=wrap;html=1;startSize=40;" vertex="1" parent="dNxyNK7c78bLwvsdeMH5-19">
          <mxGeometry x="40" y="480" width="770" height="100" as="geometry" />
        </mxCell>
        <mxCell id="5SrO1-f8xOF5O9hoDV5b-13" value="装车/卸车" style="whiteSpace=wrap;html=1;fontColor=#000000;rounded=0;" vertex="1" parent="5SrO1-f8xOF5O9hoDV5b-3">
          <mxGeometry x="390" y="35" width="80" height="50" as="geometry" />
        </mxCell>
        <mxCell id="5SrO1-f8xOF5O9hoDV5b-30" style="edgeStyle=orthogonalEdgeStyle;rounded=0;orthogonalLoop=1;jettySize=auto;html=1;" edge="1" parent="dNxyNK7c78bLwvsdeMH5-19" source="5SrO1-f8xOF5O9hoDV5b-13" target="5SrO1-f8xOF5O9hoDV5b-29">
          <mxGeometry relative="1" as="geometry" />
        </mxCell>
        <mxCell id="5SrO1-f8xOF5O9hoDV5b-32" style="edgeStyle=orthogonalEdgeStyle;rounded=0;orthogonalLoop=1;jettySize=auto;html=1;" edge="1" parent="dNxyNK7c78bLwvsdeMH5-19" source="5SrO1-f8xOF5O9hoDV5b-13" target="5SrO1-f8xOF5O9hoDV5b-31">
          <mxGeometry relative="1" as="geometry" />
        </mxCell>
        <mxCell id="5SrO1-f8xOF5O9hoDV5b-41" style="edgeStyle=orthogonalEdgeStyle;rounded=0;orthogonalLoop=1;jettySize=auto;html=1;" edge="1" parent="dNxyNK7c78bLwvsdeMH5-19" source="5SrO1-f8xOF5O9hoDV5b-39" target="5SrO1-f8xOF5O9hoDV5b-38">
          <mxGeometry relative="1" as="geometry" />
        </mxCell>
      </root>
    </mxGraphModel>
  </diagram>
</mxfile>
